<svg width="512" height="513" viewBox="0 0 512 513" fill="none" xmlns="http://www.w3.org/2000/svg">
<path fill-rule="evenodd" clip-rule="evenodd" d="M330.144 0.740479C339.014 0.740479 346.122 7.95256 346.971 16.7816C354.534 95.534 417.207 158.206 495.959 165.769C504.788 166.618 512 173.726 512 182.596V330.886C512 339.755 504.788 346.863 495.959 347.712C417.207 355.275 354.534 417.947 346.971 496.7C346.122 505.529 339.014 512.74 330.144 512.74H181.856C172.986 512.74 165.878 505.529 165.029 496.7C157.467 417.947 94.7934 355.275 16.041 347.712C7.21212 346.863 0 339.755 0 330.886V182.596C0 173.726 7.21216 166.618 16.0411 165.769C94.7935 158.206 157.467 95.534 165.029 16.7816C165.878 7.95256 172.986 0.740479 181.856 0.740479H330.144ZM102.8 256.307C102.8 341.495 171.781 410.554 256.874 410.554C341.966 410.554 410.948 341.495 410.948 256.307C410.948 171.119 341.966 102.06 256.874 102.06C171.781 102.06 102.8 171.119 102.8 256.307Z" fill="black"/>
</svg>
